<?xml version="1.0" encoding="utf-8"?>
<!-- Generator: Adobe Illustrator 24.0.2, SVG Export Plug-In . SVG Version: 6.00 Build 0)  -->
<svg version="1.1" id="Capa_1" xmlns="http://www.w3.org/2000/svg" xmlns:xlink="http://www.w3.org/1999/xlink" x="0px" y="0px"
	 viewBox="0 0 48 48" style="enable-background:new 0 0 48 48;" xml:space="preserve">
<g>
	<g>
		<path d="M45.1,27.6c-0.5-0.1-0.9,0-1.3,0.3c-1.5,1.2-3.2,2.3-5,2.9c-1.7,0.7-3.7,1-5.7,1c-4.6,0-8.7-1.9-11.7-4.9
			c-3-3-4.9-7.2-4.9-11.7c0-1.9,0.3-3.8,0.9-5.5C18,8,18.9,6.3,20.1,4.9c0.5-0.6,0.4-1.5-0.2-2c-0.4-0.3-0.8-0.4-1.3-0.3
			c-4.8,1.3-9,4.2-12,8C3.7,14.4,2,19.1,2,24.2C2,30.4,4.5,35.9,8.5,40s9.6,6.5,15.8,6.5c5.2,0,10-1.8,13.8-4.8
			c3.9-3,6.7-7.4,7.9-12.4C46.4,28.5,45.9,27.8,45.1,27.6z M36.5,39.4c-3.3,2.6-7.4,4.2-12,4.2c-5.4,0-10.2-2.2-13.7-5.7
			C7.2,34.4,5,29.5,5,24.1c0-4.5,1.5-8.5,4-11.8c1.7-2.3,3.9-4.1,6.5-5.4c-0.3,0.6-0.6,1.2-0.8,1.9c-0.7,2-1.1,4.2-1.1,6.4
			c0,5.4,2.2,10.3,5.7,13.8s8.4,5.7,13.8,5.7c2.4,0,4.6-0.4,6.7-1.2c0.7-0.3,1.5-0.6,2.1-0.9C40.7,35.3,38.8,37.6,36.5,39.4z"/>
	</g>
</g>
</svg>
