<?xml version="1.0" encoding="utf-8"?>
<!-- Generator: Adobe Illustrator 24.0.2, SVG Export Plug-In . SVG Version: 6.00 Build 0)  -->
<svg version="1.1" id="Capa_1" xmlns="http://www.w3.org/2000/svg" xmlns:xlink="http://www.w3.org/1999/xlink" x="0px" y="0px"
	 viewBox="0 0 24 24" style="enable-background:new 0 0 24 24;" xml:space="preserve">
<g>
	<g>
		<path d="M22.5,14c-0.2,0-0.4,0-0.6,0.1c-0.7,0.6-1.6,1.1-2.5,1.4c-0.8,0.3-1.8,0.5-2.8,0.5c-2.3,0-4.3-0.9-5.8-2.4
			s-2.4-3.6-2.4-5.8c0-0.9,0.1-1.9,0.4-2.7C9,4.3,9.4,3.4,10,2.7c0.2-0.3,0.2-0.7-0.1-1C9.7,1.6,9.5,1.5,9.3,1.6
			c-2.4,0.6-4.5,2.1-6,4C1.8,7.5,1,9.8,1,12.3c0,3.1,1.2,5.8,3.2,7.9s4.8,3.2,7.9,3.2c2.6,0,5-0.9,6.9-2.4c1.9-1.5,3.3-3.7,3.9-6.2
			C23.1,14.5,22.9,14.1,22.5,14z M18.2,19.9c-1.6,1.3-3.7,2.1-6,2.1c-2.7,0-5.1-1.1-6.8-2.8c-1.8-1.7-2.9-4.2-2.9-6.9
			c0-2.2,0.7-4.2,2-5.9c0.8-1.1,1.9-2,3.2-2.7C7.6,4,7.4,4.3,7.3,4.7C7,5.7,6.8,6.8,6.8,7.9c0,2.7,1.1,5.1,2.8,6.9s4.2,2.8,6.9,2.8
			c1.2,0,2.3-0.2,3.3-0.6c0.3-0.1,0.7-0.3,1-0.4C20.3,17.9,19.3,19,18.2,19.9z"/>
	</g>
</g>
</svg>
