<?xml version="1.0" encoding="utf-8"?>
<!-- Generator: Adobe Illustrator 24.0.2, SVG Export Plug-In . SVG Version: 6.00 Build 0)  -->
<svg version="1.1" id="Capa_1" xmlns="http://www.w3.org/2000/svg" xmlns:xlink="http://www.w3.org/1999/xlink" x="0px" y="0px"
	 viewBox="0 0 48 48" style="enable-background:new 0 0 48 48;" xml:space="preserve">
<g>
	<g>
		<path d="M31.8,16.2c-2-2-4.8-3.3-7.8-3.3s-5.8,1.2-7.8,3.3c-2,2-3.3,4.8-3.3,7.8s1.3,5.8,3.3,7.8c2,2,4.8,3.3,7.8,3.3
			s5.8-1.2,7.8-3.3c2-2,3.3-4.8,3.3-7.8S33.8,18.2,31.8,16.2z M29.7,29.7C28.2,31.2,26.2,32,24,32s-4.2-0.9-5.7-2.3S16,26.2,16,24
			s0.9-4.2,2.3-5.7S21.8,16,24,16s4.2,0.9,5.7,2.3S32,21.8,32,24S31.2,28.2,29.7,29.7z"/>
	</g>
</g>
<g>
	<g>
		<path d="M44.5,22.5H40c-0.8,0-1.5,0.7-1.5,1.5c0,0.8,0.7,1.5,1.5,1.5h4.5c0.8,0,1.5-0.7,1.5-1.5S45.3,22.5,44.5,22.5z"/>
	</g>
</g>
<g>
	<g>
		<path d="M24,38.5c-0.8,0-1.5,0.7-1.5,1.5v4.5c0,0.8,0.7,1.5,1.5,1.5c0.8,0,1.5-0.7,1.5-1.5V40C25.5,39.2,24.8,38.5,24,38.5z"/>
	</g>
</g>
<g>
	<g>
		<path d="M39.5,37.4l-3.2-3.2c-0.5-0.6-1.5-0.6-2.1,0c-0.6,0.6-0.6,1.5,0,2.1l3.2,3.2c0.6,0.6,1.5,0.6,2.1,0
			C40.1,39,40.1,38,39.5,37.4z"/>
	</g>
</g>
<g>
	<g>
		<path d="M24,2c-0.8,0-1.5,0.7-1.5,1.5V8c0,0.8,0.7,1.5,1.5,1.5c0.8,0,1.5-0.7,1.5-1.5V3.5C25.5,2.7,24.8,2,24,2z"/>
	</g>
</g>
<g>
	<g>
		<path d="M39.6,8.5c-0.6-0.6-1.5-0.6-2.1,0l-3.2,3.2c-0.6,0.6-0.6,1.5,0,2.1c0.5,0.6,1.5,0.6,2.1,0l3.2-3.2
			C40.2,10,40.2,9,39.6,8.5z"/>
	</g>
</g>
<g>
	<g>
		<path d="M8,22.5H3.5C2.7,22.5,2,23.2,2,24s0.6,1.5,1.5,1.5H8c0.8,0,1.5-0.7,1.5-1.5S8.8,22.5,8,22.5z"/>
	</g>
</g>
<g>
	<g>
		<path d="M13.7,34.2c-0.5-0.6-1.5-0.6-2.1,0l-3.2,3.2c-0.6,0.6-0.6,1.5,0,2.1c0.6,0.6,1.5,0.6,2.1,0l3.2-3.2
			C14.3,35.8,14.3,34.8,13.7,34.2z"/>
	</g>
</g>
<g>
	<g>
		<path d="M13.7,11.7l-3.2-3.2C9.9,7.9,9,7.9,8.4,8.5C7.8,9,7.8,10,8.4,10.6l3.2,3.2c0.6,0.6,1.5,0.6,2.1,0
			C14.3,13.2,14.3,12.2,13.7,11.7z"/>
	</g>
</g>
</svg>
