<?xml version="1.0" encoding="utf-8"?>
<!-- Generator: Adobe Illustrator 24.0.2, SVG Export Plug-In . SVG Version: 6.00 Build 0)  -->
<svg version="1.1" id="Capa_1" xmlns="http://www.w3.org/2000/svg" xmlns:xlink="http://www.w3.org/1999/xlink" x="0px" y="0px"
	 viewBox="0 0 24 24" style="enable-background:new 0 0 24 24;" xml:space="preserve">
<g>
	<g>
		<path d="M15.9,8.1c-1-1-2.4-1.7-3.9-1.7S9.1,7.1,8.1,8.1c-1,1-1.7,2.4-1.7,3.9s0.7,2.9,1.7,3.9s2.4,1.6,3.9,1.6s2.9-0.6,3.9-1.6
			c1-1,1.6-2.4,1.6-3.9S16.9,9.1,15.9,8.1z M14.9,14.9C14.1,15.6,13.1,16,12,16s-2.1-0.4-2.9-1.1S8,13.1,8,12s0.4-2.1,1.1-2.9
			S10.9,8,12,8s2.1,0.4,2.9,1.1S16,10.9,16,12S15.6,14.1,14.9,14.9z"/>
	</g>
</g>
<g>
	<g>
		<path d="M22.3,11.3H20c-0.4,0-0.8,0.4-0.8,0.8s0.4,0.8,0.8,0.8h2.3c0.4,0,0.8-0.4,0.8-0.8S22.6,11.3,22.3,11.3z"/>
	</g>
</g>
<g>
	<g>
		<path d="M12,19.3c-0.4,0-0.8,0.4-0.8,0.8v2.3c0,0.4,0.4,0.8,0.8,0.8s0.8-0.4,0.8-0.8V20C12.8,19.6,12.4,19.3,12,19.3z"/>
	</g>
</g>
<g>
	<g>
		<path d="M19.8,18.7l-1.6-1.6c-0.3-0.3-0.8-0.3-1,0s-0.3,0.8,0,1l1.6,1.6c0.3,0.3,0.8,0.3,1,0C20,19.5,20,19,19.8,18.7z"/>
	</g>
</g>
<g>
	<g>
		<path d="M12,1c-0.4,0-0.8,0.4-0.8,0.8V4c0,0.4,0.4,0.8,0.8,0.8s0.8-0.3,0.8-0.8V1.8C12.8,1.4,12.4,1,12,1z"/>
	</g>
</g>
<g>
	<g>
		<path d="M19.8,4.3c-0.3-0.3-0.8-0.3-1,0l-1.6,1.6c-0.3,0.3-0.3,0.8,0,1c0.3,0.3,0.8,0.3,1,0l1.6-1.6C20.1,5,20.1,4.5,19.8,4.3z"/>
	</g>
</g>
<g>
	<g>
		<path d="M4,11.3H1.8C1.4,11.3,1,11.6,1,12s0.3,0.8,0.8,0.8H4c0.4,0,0.8-0.4,0.8-0.8S4.4,11.3,4,11.3z"/>
	</g>
</g>
<g>
	<g>
		<path d="M6.8,17.1c-0.3-0.3-0.8-0.3-1,0l-1.6,1.6c-0.3,0.3-0.3,0.8,0,1s0.8,0.3,1,0l1.6-1.6C7.2,17.9,7.2,17.4,6.8,17.1z"/>
	</g>
</g>
<g>
	<g>
		<path d="M6.8,5.8L5.3,4.3C4.9,4,4.5,4,4.2,4.3C3.9,4.5,3.9,5,4.2,5.3l1.6,1.6c0.3,0.3,0.8,0.3,1,0C7.2,6.6,7.2,6.1,6.8,5.8z"/>
	</g>
</g>
</svg>
